<svg width="1102" height="799" viewBox="0 0 1102 799" fill="none" xmlns="http://www.w3.org/2000/svg">
<g opacity="0.1">
<path d="M359.978 319.348L359.978 238.53C359.978 233.007 355.501 228.53 349.978 228.53L284.379 228.53C278.856 228.53 274.379 224.053 274.379 218.53L274.379 125.2C274.379 119.677 269.902 115.2 264.379 115.2L165.234 115.2" stroke="url(#paint0_linear)" stroke-width="3" stroke-miterlimit="10" stroke-linecap="round" stroke-linejoin="round"/>
<path d="M818.085 266.69L818.085 162.981C818.085 157.458 822.562 152.981 828.085 152.981L881.296 152.981C886.819 152.981 891.296 148.504 891.296 142.981L891.296 84.2008C891.296 78.6779 895.773 74.2008 901.296 74.2008L1016.38 74.2008" stroke="url(#paint1_linear)" stroke-width="3" stroke-miterlimit="10" stroke-linecap="round" stroke-linejoin="round"/>
<path d="M737.9 381.778L883.66 381.778" stroke="url(#paint2_linear)" stroke-width="3" stroke-miterlimit="10" stroke-linecap="round" stroke-linejoin="round"/>
<path d="M61.8398 225.555L136.899 225.555C142.422 225.555 146.899 230.033 146.899 235.555L146.899 295.766C146.899 301.289 151.377 305.766 156.899 305.766L350.181 305.766C355.704 305.766 360.181 310.243 360.181 315.766L360.181 371.316C360.181 376.839 364.658 381.316 370.181 381.316L580.503 381.316L580.503 604.009M580.503 604.009L503.35 604.009C497.828 604.009 493.35 608.486 493.35 614.009L493.35 643.039M580.503 604.009L580.503 664.294C580.503 669.817 584.98 674.294 590.503 674.294L625.841 674.294M493.35 708.781L493.35 643.039M493.35 643.039L446.328 643.039C440.805 643.039 436.328 647.517 436.328 653.039L436.328 674.294" stroke="url(#paint3_linear)" stroke-width="3" stroke-miterlimit="10" stroke-linecap="round" stroke-linejoin="round"/>
<path d="M654.553 381.78C680.452 381.78 723.522 381.78 742.894 381.78C748.417 381.78 752.872 377.303 752.872 371.78L752.872 278.449C752.872 272.927 757.349 268.449 762.872 268.449L918.436 268.449C923.959 268.449 928.436 272.927 928.436 278.449L928.436 333.934C928.436 339.457 932.914 343.934 938.436 343.934L1026.37 343.934C1031.89 343.934 1036.37 348.411 1036.37 353.934L1036.37 423.026" stroke="url(#paint4_linear)" stroke-width="3" stroke-miterlimit="10" stroke-linecap="round" stroke-linejoin="round"/>
<path d="M494.51 168.945L494.605 74.3857" stroke="url(#paint5_linear)" stroke-width="3" stroke-miterlimit="10" stroke-linecap="round" stroke-linejoin="round"/>
<path d="M752.874 453.213L752.874 592.335C752.874 597.857 757.351 602.335 762.874 602.335L830.036 602.335C835.559 602.335 840.036 606.812 840.036 612.335L840.036 797" stroke="url(#paint6_linear)" stroke-width="3" stroke-miterlimit="10" stroke-linecap="round" stroke-linejoin="round"/>
<path d="M492.696 379.5L492.696 445.193C492.696 450.716 488.219 455.193 482.696 455.193L330.863 455.193C325.34 455.193 320.863 459.67 320.863 465.193L320.863 501.858C320.863 507.381 316.386 511.858 310.863 511.858L213.109 511.858C207.587 511.858 203.109 516.335 203.109 521.858L203.109 558.523C203.109 564.046 207.587 568.523 213.109 568.523L282.912 568.523" stroke="url(#paint7_linear)" stroke-width="3" stroke-miterlimit="10" stroke-linecap="round" stroke-linejoin="round"/>
<path d="M408.951 65.321L408.951 144.875C408.951 150.398 413.428 154.875 418.951 154.875L484.863 154.875C490.386 154.875 494.863 159.353 494.863 164.875L494.863 223.902C494.863 229.425 499.34 233.902 504.863 233.902L570.33 233.902C575.853 233.902 580.33 238.379 580.33 243.902L580.33 381.537L657.482 381.537C663.005 381.537 667.482 386.014 667.482 391.537L667.482 445.108C667.482 450.631 671.96 455.108 677.482 455.108L832.356 455.108C837.879 455.108 842.356 459.585 842.356 465.108L842.356 522.647C842.356 528.17 846.833 532.647 852.356 532.647L959.817 532.647C965.34 532.647 969.817 537.125 969.817 542.647L969.817 650" stroke="url(#paint8_linear)" stroke-width="3" stroke-miterlimit="10" stroke-linecap="round" stroke-linejoin="round"/>
<path d="M580.179 302.48L602.703 302.48C608.226 302.48 612.703 298.003 612.703 292.48L612.703 199.235C612.703 193.712 617.18 189.235 622.703 189.235L655.694 189.235C661.217 189.235 665.694 184.757 665.694 179.235L665.694 125.199C665.694 119.677 661.217 115.199 655.694 115.199L566 115.199C560.477 115.199 556 110.722 556 105.199L556 1.86884" stroke="url(#paint9_linear)" stroke-width="3" stroke-miterlimit="10" stroke-linecap="round" stroke-linejoin="round"/>
<path d="M1100.28 497.991H997.035C991.512 497.991 987.035 493.514 987.035 487.991V455C987.035 449.477 982.558 445 977.035 445H923C917.477 445 913 449.477 913 455V530.515" stroke="url(#paint10_linear)" stroke-width="3" stroke-miterlimit="10" stroke-linecap="round" stroke-linejoin="round"/>
<path d="M579.006 495.236L656.443 495.236C661.965 495.236 666.443 499.713 666.443 505.236L666.443 721.869" stroke="url(#paint11_linear)" stroke-width="3" stroke-miterlimit="10" stroke-linecap="round" stroke-linejoin="round"/>
<path d="M534.548 379.499L534.548 314.09C534.548 308.567 530.071 304.09 524.548 304.09L447.216 304.09" stroke="url(#paint12_linear)" stroke-width="3" stroke-miterlimit="10" stroke-linecap="round" stroke-linejoin="round"/>
<path d="M403.763 455.194L403.763 558.525C403.763 564.047 399.286 568.525 393.763 568.525L348.252 568.525C342.729 568.525 338.252 573.002 338.252 578.525L338.252 670.461" stroke="url(#paint13_linear)" stroke-width="3" stroke-miterlimit="10" stroke-linecap="round" stroke-linejoin="round"/>
<path d="M272.9 306.227L272.9 366.781C272.9 372.303 268.423 376.781 262.9 376.781L97.4289 376.781C91.906 376.781 87.4289 381.258 87.4289 386.781L87.4289 445.191C87.4289 450.714 82.9517 455.191 77.4289 455.191L2 455.191" stroke="url(#paint14_linear)" stroke-width="3" stroke-miterlimit="10" stroke-linecap="round" stroke-linejoin="round"/>
<path d="M279.925 308.527C279.925 303.814 276.105 299.994 271.392 299.994C266.679 299.994 262.858 303.814 262.858 308.527C262.858 313.24 266.679 317.061 271.392 317.061C276.105 317.061 279.925 313.24 279.925 308.527Z" fill="#9013FE"/>
<path d="M587.54 495.975C587.54 491.263 583.72 487.442 579.007 487.442C574.294 487.442 570.474 491.262 570.474 495.975C570.474 500.688 574.294 504.509 579.007 504.509C583.72 504.509 587.54 500.688 587.54 495.975Z" fill="#9013FE"/>
<path d="M587.607 603.944C587.607 599.231 583.786 595.411 579.073 595.411C574.361 595.411 570.54 599.231 570.54 603.944C570.54 608.657 574.361 612.478 579.073 612.478C583.786 612.478 587.607 608.657 587.607 603.944Z" fill="#9013FE"/>
<path d="M501.146 643.723C501.146 639.01 497.325 635.19 492.613 635.19C487.9 635.19 484.079 639.01 484.079 643.723C484.079 648.436 487.9 652.256 492.613 652.256C497.325 652.256 501.146 648.436 501.146 643.723Z" fill="#9013FE"/>
<path d="M675.187 379.954C675.187 375.241 671.366 371.42 666.654 371.42C661.941 371.42 658.12 375.241 658.12 379.954C658.12 384.667 661.941 388.487 666.654 388.487C671.366 388.487 675.187 384.667 675.187 379.954Z" fill="#6170F7"/>
<path d="M826.618 266.69C826.618 261.977 822.797 258.157 818.084 258.157C813.371 258.157 809.551 261.977 809.551 266.69C809.551 271.403 813.371 275.224 818.084 275.224C822.797 275.224 826.618 271.403 826.618 266.69Z" fill="#36C5F0"/>
<path d="M921.067 530.533C921.067 525.821 917.246 522 912.533 522C907.82 522 904 525.821 904 530.533C904 535.246 907.82 539.067 912.533 539.067C917.246 539.067 921.067 535.246 921.067 530.533Z" fill="#36C5F0"/>
<path d="M502.511 156.443C502.511 151.73 498.691 147.91 493.978 147.91C489.265 147.91 485.444 151.73 485.444 156.443C485.444 161.156 489.265 164.977 493.978 164.977C498.691 164.977 502.511 161.156 502.511 156.443Z" fill="#36C5F0"/>
</g>
<defs>
<linearGradient id="paint0_linear" x1="165.234" y1="209.645" x2="359.978" y2="209.645" gradientUnits="userSpaceOnUse">
<stop stop-color="#36C5F0"/>
<stop offset="1" stop-color="#9013FE"/>
</linearGradient>
<linearGradient id="paint1_linear" x1="818.085" y1="170.446" x2="1016.38" y2="170.446" gradientUnits="userSpaceOnUse">
<stop stop-color="#36C5F0"/>
<stop offset="1" stop-color="#9013FE"/>
</linearGradient>
<linearGradient id="paint2_linear" x1="752.874" y1="381.278" x2="883.66" y2="381.278" gradientUnits="userSpaceOnUse">
<stop stop-color="#36C5F0"/>
<stop offset="1" stop-color="#9013FE"/>
</linearGradient>
<linearGradient id="paint3_linear" x1="61.8398" y1="481.416" x2="580.503" y2="481.416" gradientUnits="userSpaceOnUse">
<stop stop-color="#36C5F0"/>
<stop offset="1" stop-color="#9013FE"/>
</linearGradient>
<linearGradient id="paint4_linear" x1="665.312" y1="345.738" x2="1036.37" y2="345.738" gradientUnits="userSpaceOnUse">
<stop stop-color="#36C5F0"/>
<stop offset="0.755208" stop-color="#6170F7"/>
<stop offset="1" stop-color="#9013FE"/>
</linearGradient>
<linearGradient id="paint5_linear" x1="496.51" y1="167.051" x2="494.721" y2="74.2301" gradientUnits="userSpaceOnUse">
<stop stop-color="#36C5F0"/>
<stop offset="1" stop-color="#9013FE"/>
</linearGradient>
<linearGradient id="paint6_linear" x1="844.45" y1="679.249" x2="755.895" y2="450.05" gradientUnits="userSpaceOnUse">
<stop stop-color="#36C5F0"/>
<stop offset="1" stop-color="#9013FE"/>
</linearGradient>
<linearGradient id="paint7_linear" x1="203.109" y1="474.012" x2="492.696" y2="474.012" gradientUnits="userSpaceOnUse">
<stop stop-color="#36C5F0"/>
<stop offset="1" stop-color="#9013FE"/>
</linearGradient>
<linearGradient id="paint8_linear" x1="408.951" y1="307.515" x2="969.817" y2="307.515" gradientUnits="userSpaceOnUse">
<stop stop-color="#9013FE"/>
<stop offset="1" stop-color="#36C5F0"/>
</linearGradient>
<linearGradient id="paint9_linear" x1="529.084" y1="152.174" x2="665.694" y2="152.174" gradientUnits="userSpaceOnUse">
<stop stop-color="#36C5F0"/>
<stop offset="1" stop-color="#9013FE"/>
</linearGradient>
<linearGradient id="paint10_linear" x1="913" y1="531" x2="1116" y2="512" gradientUnits="userSpaceOnUse">
<stop stop-color="#36C5F0"/>
<stop offset="1" stop-color="#9013FE"/>
</linearGradient>
<linearGradient id="paint11_linear" x1="666.869" y1="687.773" x2="585.418" y2="530.554" gradientUnits="userSpaceOnUse">
<stop stop-color="#36C5F0"/>
<stop offset="1" stop-color="#9013FE"/>
</linearGradient>
<linearGradient id="paint12_linear" x1="447.216" y1="341.794" x2="534.548" y2="341.794" gradientUnits="userSpaceOnUse">
<stop stop-color="#36C5F0"/>
<stop offset="1" stop-color="#9013FE"/>
</linearGradient>
<linearGradient id="paint13_linear" x1="338.252" y1="562.828" x2="403.763" y2="562.828" gradientUnits="userSpaceOnUse">
<stop stop-color="#36C5F0"/>
<stop offset="1" stop-color="#9013FE"/>
</linearGradient>
<linearGradient id="paint14_linear" x1="2" y1="379.641" x2="272.9" y2="379.641" gradientUnits="userSpaceOnUse">
<stop stop-color="#36C5F0"/>
<stop offset="1" stop-color="#9013FE"/>
</linearGradient>
</defs>
</svg>
